<?xml version="1.0" standalone="no"?>
<!DOCTYPE svg PUBLIC "-//W3C//DTD SVG 20010904//EN"
 "http://www.w3.org/TR/2001/REC-SVG-20010904/DTD/svg10.dtd">
<svg version="1.0" xmlns="http://www.w3.org/2000/svg"
 width="2208.000000pt" height="2208.000000pt" viewBox="0 0 2208.000000 2208.000000"
 preserveAspectRatio="xMidYMid meet">
<metadata>
Created by potrace 1.14, written by Peter Selinger 2001-2017
</metadata>
<g transform="translate(0.000000,2208.000000) scale(0.100000,-0.100000)"
fill="#000000" stroke="none">
<path d="M3862 15814 c6 -13 15 -24 20 -24 4 0 8 -6 8 -12 0 -12 46 -86 70
-115 5 -7 10 -19 10 -27 0 -8 4 -16 9 -18 5 -1 17 -17 27 -35 66 -112 189
-309 196 -311 4 -2 8 -8 8 -14 0 -6 13 -29 28 -52 15 -22 31 -48 35 -56 4 -8
15 -27 25 -42 50 -79 158 -254 161 -263 2 -5 7 -12 10 -15 6 -4 29 -42 131
-210 5 -8 40 -65 77 -125 38 -61 74 -123 82 -138 8 -15 18 -27 23 -27 4 0 8
-4 8 -10 0 -8 27 -54 88 -150 9 -14 15 -28 14 -32 -1 -5 2 -8 7 -8 5 0 14 -13
21 -30 7 -16 16 -30 21 -30 5 0 9 -5 9 -11 0 -6 15 -34 33 -62 19 -29 71 -113
117 -187 104 -170 191 -310 208 -336 7 -10 15 -27 18 -36 4 -10 10 -18 14 -18
4 0 10 -8 14 -17 3 -10 31 -56 61 -103 30 -47 62 -98 70 -115 9 -16 40 -68 70
-115 30 -47 71 -113 90 -147 20 -33 42 -67 50 -73 8 -7 15 -18 15 -24 0 -10
47 -86 70 -113 5 -7 10 -15 10 -19 0 -3 14 -26 30 -51 17 -24 30 -47 30 -50 0
-3 10 -20 23 -37 12 -17 31 -48 42 -68 11 -21 23 -38 27 -38 5 0 8 -5 8 -10 0
-10 77 -139 90 -150 5 -5 21 -31 44 -75 6 -11 20 -33 30 -50 20 -31 41 -64 94
-150 17 -27 35 -55 39 -61 5 -5 15 -23 24 -40 9 -16 62 -103 119 -194 57 -91
108 -175 114 -187 6 -13 14 -23 19 -23 4 0 7 -5 7 -11 0 -6 14 -30 30 -54 17
-24 30 -46 30 -48 0 -3 43 -73 95 -155 52 -83 95 -156 95 -162 0 -5 5 -10 11
-10 5 0 8 -4 5 -9 -4 -5 -2 -11 3 -13 4 -1 34 -46 66 -98 32 -52 63 -98 69
-102 6 -4 7 -8 3 -8 -4 0 6 -20 23 -44 16 -25 30 -49 30 -55 0 -6 5 -11 10
-11 6 0 10 -7 10 -15 0 -8 4 -15 9 -15 5 0 11 -8 14 -17 6 -19 38 -75 48 -83
3 -3 16 -25 30 -50 13 -25 30 -49 37 -53 6 -4 12 -13 12 -18 0 -6 23 -47 51
-92 29 -45 62 -98 74 -117 12 -19 33 -53 47 -75 21 -35 24 -51 24 -123 -1 -45
3 -82 7 -82 5 0 5 -6 1 -12 -11 -17 -11 -1128 -1 -1128 5 0 5 -5 1 -12 -11
-17 -11 -628 -1 -628 5 0 5 -5 1 -12 -11 -17 -11 -628 -1 -628 5 0 5 -5 1 -12
-11 -17 -11 -628 0 -628 5 0 4 -6 0 -12 -5 -7 -9 -123 -9 -258 l1 -245 39 -5
c22 -3 383 -5 802 -4 535 0 760 -3 756 -10 -5 -7 -2 -7 8 0 10 8 191 11 617
10 332 -1 606 3 609 8 3 4 6 846 6 1870 l-1 1861 25 47 c13 26 31 52 39 59 7
6 11 15 8 20 -3 5 0 9 5 9 6 0 11 7 11 15 0 8 5 15 10 15 6 0 10 4 10 10 0 5
21 42 46 82 25 40 51 82 57 93 7 11 27 43 45 71 17 28 32 56 32 63 0 6 4 11 8
11 5 0 16 15 25 33 9 17 23 41 29 51 30 46 84 133 94 151 30 55 110 180 117
183 4 2 5 8 1 13 -3 5 0 9 5 9 6 0 11 4 11 9 0 8 102 178 175 291 12 19 62
100 110 180 107 177 141 231 155 248 6 6 8 12 5 12 -7 0 48 84 58 88 4 2 7 8
7 12 0 12 252 424 262 428 4 2 8 8 8 14 0 6 21 45 48 87 26 42 52 85 59 96 6
11 39 64 72 118 34 53 61 102 61 107 0 6 3 10 8 10 4 0 20 25 37 55 16 30 33
55 37 55 4 0 8 6 8 13 0 8 9 24 20 37 11 13 20 27 20 31 0 8 41 73 60 96 5 7
10 15 10 18 0 4 14 26 30 50 17 24 30 46 30 49 0 5 140 233 171 278 10 14 20
32 21 40 2 7 10 18 18 25 8 7 11 13 5 13 -6 0 -6 3 0 8 15 10 95 139 95 152 0
5 5 10 10 10 6 0 10 5 10 10 0 6 5 16 10 23 6 7 29 44 52 82 23 39 44 72 47
75 3 3 17 25 30 50 13 25 29 52 36 60 7 8 27 41 46 74 19 32 43 73 54 90 11
18 40 66 64 107 24 41 48 76 53 77 4 2 8 7 8 12 0 8 125 216 207 346 7 10 20
33 29 49 9 17 31 53 49 80 87 137 195 316 195 325 0 6 4 10 8 10 5 0 14 12 20
26 7 14 32 56 57 94 25 38 45 72 45 76 0 4 11 22 25 40 14 18 25 37 25 43 0 6
5 11 10 11 6 0 10 6 10 13 0 7 16 36 35 64 19 29 35 57 35 63 0 5 4 10 9 10 5
0 13 10 17 23 4 12 10 24 13 27 6 4 90 143 99 162 2 3 -713 6 -1588 6 l-1591
0 -13 -21 c-12 -20 -63 -115 -138 -257 -16 -30 -49 -91 -73 -135 -24 -44 -54
-100 -66 -125 -12 -25 -25 -47 -28 -50 -4 -3 -28 -48 -55 -100 -27 -52 -60
-113 -72 -135 -13 -22 -28 -52 -35 -67 -6 -16 -15 -28 -21 -28 -5 0 -7 -4 -3
-9 3 -5 -1 -16 -9 -23 -7 -8 -17 -25 -21 -38 -4 -14 -10 -27 -14 -30 -7 -6 -6
-4 -88 -160 -34 -63 -73 -135 -87 -160 -13 -25 -39 -72 -56 -105 -17 -33 -42
-80 -56 -105 -14 -25 -55 -101 -91 -170 -36 -69 -70 -126 -75 -128 -4 -2 -8
-9 -8 -15 0 -12 -10 -32 -47 -97 -11 -19 -48 -89 -83 -155 -35 -66 -101 -189
-147 -273 -46 -84 -83 -157 -83 -162 0 -5 -3 -10 -7 -12 -5 -1 -17 -21 -28
-43 -11 -22 -49 -94 -85 -160 -36 -66 -74 -137 -85 -157 -11 -21 -33 -64 -50
-95 -16 -32 -33 -59 -37 -61 -5 -2 -8 -12 -8 -23 0 -10 -4 -19 -9 -19 -5 0
-14 -14 -20 -32 -11 -30 -12 -31 -25 -12 -7 10 -30 51 -51 89 -43 79 -86 159
-123 225 -13 25 -40 74 -60 110 -19 36 -59 108 -88 161 -30 54 -54 102 -54
108 0 6 -4 11 -9 11 -5 0 -11 6 -13 13 -3 10 -59 117 -168 316 -68 123 -115
210 -134 246 -12 22 -25 43 -31 47 -5 4 -6 8 -1 8 5 0 4 6 -2 13 -15 18 -71
117 -89 157 -8 19 -18 37 -22 40 -3 3 -15 23 -27 45 -23 46 -98 183 -127 235
-11 19 -37 67 -57 105 -21 39 -65 119 -99 179 -34 60 -61 111 -61 113 0 2 -20
38 -44 81 -64 114 -90 162 -148 270 -28 53 -54 99 -58 102 -7 5 -23 40 -24 53
-1 4 -5 11 -11 15 -5 4 -11 12 -12 18 -1 7 -16 35 -33 63 -16 29 -30 56 -30
60 0 5 -7 14 -15 21 -9 7 -13 15 -11 18 3 3 -3 17 -13 31 -10 14 -33 55 -52
91 -18 36 -38 68 -44 72 -5 4 -6 8 -1 8 5 0 1 9 -8 19 -17 19 -56 19 -1606 19
l-1589 0 11 -24z"/>
<path d="M15200 14515 c-24 -103 -25 -106 -34 -140 -3 -11 -14 -54 -25 -95
-11 -41 -24 -90 -30 -107 -5 -18 -8 -33 -5 -33 3 0 0 -8 -5 -17 -5 -10 -12
-31 -15 -48 -3 -16 -10 -48 -16 -70 -6 -22 -12 -47 -14 -55 -2 -8 -12 -44 -21
-80 -9 -36 -19 -72 -21 -80 -19 -79 -22 -95 -18 -102 3 -4 0 -8 -5 -8 -6 0
-10 -3 -10 -7 1 -5 0 -11 -1 -15 -4 -13 -6 -22 -15 -63 -13 -56 -12 -55 -15
-57 -1 -2 -3 -10 -5 -18 -2 -8 -29 -114 -60 -235 -57 -223 -104 -408 -110
-435 -2 -8 -11 -42 -20 -75 -9 -33 -18 -67 -20 -75 -1 -8 -8 -35 -15 -60 -7
-25 -14 -52 -15 -60 -2 -8 -8 -30 -14 -49 -6 -18 -10 -36 -9 -40 1 -3 -5 -26
-12 -51 -7 -25 -14 -49 -16 -55 -10 -40 -46 -182 -48 -190 -2 -5 -5 -17 -8
-25 -5 -14 -66 -259 -73 -290 -2 -8 -13 -51 -24 -95 -12 -44 -24 -91 -27 -105
-3 -14 -8 -34 -11 -45 -7 -22 -9 -27 -16 -67 -3 -15 -8 -31 -11 -36 -3 -5 -7
-19 -9 -33 -3 -13 -17 -70 -32 -126 -15 -56 -28 -110 -30 -120 -2 -10 -4 -18
-5 -18 -1 0 -3 -7 -5 -15 -2 -8 -6 -26 -9 -40 -3 -14 -12 -49 -20 -77 -8 -29
-12 -53 -9 -53 3 0 -1 -7 -8 -17 -8 -9 -13 -18 -11 -20 1 -1 2 -4 1 -5 0 -2
-2 -12 -4 -23 -3 -11 -23 -92 -45 -180 -23 -88 -43 -171 -46 -185 -2 -14 -7
-32 -11 -40 -3 -8 -7 -22 -9 -30 -2 -9 -22 -88 -45 -175 -39 -154 -45 -176
-54 -220 -3 -11 -13 -50 -24 -88 -11 -37 -20 -70 -20 -72 -1 -3 -1 -6 -2 -7 0
-2 -2 -10 -4 -18 -1 -8 -11 -44 -20 -80 -17 -67 -22 -87 -31 -129 -3 -14 -7
-28 -9 -31 -2 -4 -7 -21 -10 -39 -3 -18 -11 -47 -19 -64 l-13 -32 -2 35 c-2
19 -4 45 -4 58 -1 12 -4 22 -7 22 -3 0 -7 16 -8 37 -2 20 -6 41 -9 46 -3 5 -7
23 -10 41 -5 43 -10 71 -13 71 -1 0 -3 14 -5 30 -2 17 -11 66 -19 110 -9 44
-23 118 -31 165 -8 47 -17 96 -20 110 -8 32 -12 57 -31 160 -9 47 -18 92 -19
101 -2 9 -6 34 -9 55 -4 22 -8 46 -11 54 -2 8 -6 31 -9 50 -8 50 -16 93 -21
110 -2 8 -7 38 -11 65 -3 28 -8 53 -10 56 -2 3 -6 21 -9 40 -3 19 -9 54 -14
79 -5 25 -14 72 -20 105 -6 33 -17 94 -25 135 -8 41 -14 82 -14 90 -1 8 -6 33
-12 55 -6 22 -12 54 -14 70 -3 25 -50 277 -70 380 -3 17 -8 41 -11 55 -2 14
-9 50 -15 80 -6 30 -13 64 -14 75 -3 19 -9 50 -21 118 -3 15 -8 39 -11 55 -3
15 -7 34 -8 42 -14 93 -20 121 -27 126 -5 3 -7 9 -4 14 3 5 -1 44 -9 87 -9 43
-18 89 -20 103 -3 14 -10 50 -16 80 -6 30 -13 71 -16 90 -10 68 -13 80 -18 89
-3 4 -8 28 -10 52 -3 24 -8 55 -11 69 -3 14 -9 50 -15 80 -11 60 -17 92 -25
130 -2 14 -7 39 -10 55 -3 17 -7 41 -10 55 -3 14 -8 41 -11 60 -3 19 -10 54
-15 77 -5 24 -9 46 -8 50 1 5 0 10 -1 13 -2 6 -7 27 -14 65 -3 17 -8 41 -11
55 -3 14 -7 41 -10 60 -2 19 -9 50 -14 69 -6 19 -8 38 -5 42 3 5 1 17 -4 26
-6 10 -12 36 -15 58 -3 22 -9 56 -12 75 -3 19 -8 44 -10 55 -2 11 -10 54 -18
95 -9 41 -18 92 -22 113 -5 32 -9 36 -21 27 -8 -7 -14 -17 -14 -22 0 -5 -15
-33 -34 -61 -18 -29 -42 -68 -52 -87 -11 -19 -22 -37 -25 -40 -4 -3 -16 -23
-28 -45 -12 -22 -60 -101 -106 -175 -47 -74 -90 -147 -96 -162 -6 -16 -15 -28
-20 -28 -5 0 -9 -4 -9 -10 0 -5 -20 -41 -45 -80 -25 -39 -45 -75 -45 -80 0 -6
-4 -10 -10 -10 -5 0 -10 -6 -10 -14 0 -8 -6 -21 -12 -28 -16 -17 -36 -47 -45
-68 -3 -8 -18 -33 -32 -55 -14 -22 -31 -49 -38 -60 -6 -11 -44 -74 -84 -140
-39 -66 -77 -127 -84 -135 -7 -8 -24 -35 -37 -60 -14 -25 -48 -82 -77 -128
-28 -46 -51 -88 -51 -93 0 -5 -4 -9 -9 -9 -5 0 -11 -8 -14 -17 -6 -19 -38 -74
-47 -83 -7 -6 -149 -240 -169 -278 -8 -15 -18 -28 -23 -30 -4 -2 -8 -7 -8 -12
0 -4 -18 -37 -40 -71 -22 -35 -49 -82 -61 -104 -12 -22 -25 -42 -29 -45 -4 -3
-18 -25 -31 -50 -13 -25 -26 -47 -29 -50 -3 -3 -27 -41 -53 -85 -27 -44 -53
-89 -60 -100 -36 -58 -63 -103 -77 -126 -8 -15 -55 -93 -105 -173 -154 -251
-151 -245 -138 -276 7 -16 8 -23 17 -60 8 -37 62 -245 82 -315 9 -33 17 -70
17 -82 1 -13 4 -23 8 -23 4 0 9 -15 12 -32 8 -47 18 -91 24 -108 3 -8 7 -19 8
-25 21 -83 38 -148 60 -235 15 -58 29 -112 30 -120 2 -8 4 -16 5 -17 2 -2 4
-7 5 -13 1 -5 4 -12 5 -15 1 -3 3 -14 4 -24 0 -11 4 -23 9 -27 4 -4 7 -20 7
-36 0 -15 5 -28 11 -28 5 0 8 -4 5 -9 -3 -5 1 -30 8 -57 21 -75 76 -286 80
-309 1 -11 6 -27 9 -35 5 -13 84 -312 92 -351 2 -8 15 -61 30 -117 15 -56 28
-109 30 -119 2 -10 4 -18 5 -18 1 0 3 -7 5 -15 2 -8 7 -26 10 -40 4 -14 8 -34
10 -45 2 -11 4 -20 5 -20 1 0 3 -7 5 -15 9 -32 35 -136 40 -155 2 -11 18 -69
34 -129 16 -60 28 -113 25 -117 -2 -4 0 -9 5 -11 6 -1 12 -19 14 -38 2 -20 6
-40 9 -45 6 -10 22 -72 23 -90 1 -5 6 -26 13 -45 6 -19 14 -46 16 -60 3 -14
17 -70 32 -125 14 -55 28 -107 29 -115 2 -8 4 -16 5 -17 3 -4 6 -13 15 -58 4
-22 10 -44 13 -50 3 -5 7 -16 8 -25 2 -14 62 -247 119 -464 13 -49 22 -93 19
-97 -2 -4 0 -9 5 -11 9 -3 16 -31 28 -105 3 -18 9 -33 15 -33 5 0 6 -4 3 -10
-3 -5 -3 -16 1 -22 5 -7 9 -19 10 -28 1 -12 48 -196 70 -275 3 -11 7 -28 8
-37 1 -10 5 -21 9 -24 4 -4 7 -19 7 -34 0 -14 5 -31 12 -38 7 -7 9 -12 5 -12
-3 0 1 -21 9 -47 8 -27 17 -61 19 -78 3 -16 11 -50 19 -74 l13 -45 1234 0
c679 -1 1246 1 1260 2 24 4 27 11 54 125 16 67 29 127 31 132 1 6 9 36 17 67
8 31 12 59 9 62 -2 3 0 12 6 19 6 7 12 28 14 45 1 18 6 32 10 32 4 0 7 3 6 8
-1 4 2 26 6 49 4 24 8 46 8 50 0 5 4 18 9 31 5 13 11 37 14 55 3 18 8 40 11
49 6 21 14 54 21 93 2 17 9 35 14 41 5 6 6 13 4 16 -3 3 -1 16 4 30 5 14 12
38 15 54 11 56 27 129 33 144 3 8 7 25 9 36 1 12 14 68 28 125 26 109 65 272
72 302 8 33 12 52 24 97 6 25 13 56 15 70 1 14 4 25 5 25 1 0 3 7 5 15 2 8 10
43 18 78 9 34 16 65 16 67 1 3 3 10 6 17 2 7 11 47 20 88 23 105 22 98 40 170
21 88 24 101 30 132 3 15 9 38 14 51 6 14 7 27 5 30 -3 3 -1 14 4 24 9 16 16
46 26 103 1 8 5 24 9 35 3 11 9 31 11 45 7 30 22 97 29 125 14 53 28 112 32
130 2 11 9 41 15 66 6 26 13 55 15 65 2 11 4 19 5 19 1 0 3 9 5 21 4 17 15 66
51 219 3 11 7 31 10 44 3 14 7 28 9 31 2 4 7 20 9 36 10 50 14 67 31 134 9 36
19 76 21 90 3 14 9 40 15 57 6 18 8 37 4 43 -3 5 -2 10 3 10 5 0 9 6 10 13 0
12 5 33 19 92 4 17 7 32 8 35 1 3 4 19 8 35 4 17 9 39 12 50 2 11 16 67 30
125 14 58 28 114 30 125 2 11 4 20 5 20 1 0 3 8 5 19 2 10 9 39 15 65 6 25 12
56 15 69 2 13 7 32 10 42 6 19 13 48 21 90 2 14 7 32 10 40 3 8 8 24 10 35 3
11 8 36 13 55 l8 35 12 -55 c6 -30 13 -69 15 -87 3 -18 7 -36 9 -40 3 -4 8
-24 11 -43 3 -19 8 -46 10 -60 3 -14 7 -37 10 -53 3 -15 7 -35 10 -45 3 -9 8
-33 11 -52 2 -19 9 -55 15 -80 19 -85 26 -120 40 -196 5 -28 14 -70 20 -93 6
-24 13 -57 15 -74 2 -18 16 -86 30 -152 14 -66 28 -133 31 -150 2 -16 7 -37 9
-45 2 -8 7 -31 10 -50 3 -19 8 -42 11 -51 2 -10 7 -30 9 -45 2 -16 6 -40 9
-54 3 -14 10 -47 16 -75 6 -27 13 -61 16 -75 12 -55 42 -209 51 -255 8 -46 11
-60 13 -60 1 0 3 -11 4 -25 0 -14 5 -31 9 -37 5 -7 6 -13 4 -13 -3 0 0 -19 5
-42 5 -24 12 -54 14 -68 7 -40 34 -169 49 -240 8 -36 16 -79 19 -97 2 -17 6
-36 9 -40 3 -5 8 -27 10 -48 3 -22 8 -47 11 -55 3 -8 7 -28 10 -45 3 -16 7
-40 10 -51 2 -12 7 -39 10 -60 4 -22 9 -47 12 -57 3 -11 8 -29 10 -40 2 -12 5
-33 8 -47 2 -14 12 -61 21 -105 9 -44 19 -91 21 -105 3 -14 7 -32 10 -41 2 -9
7 -32 9 -50 6 -39 13 -74 15 -74 1 0 3 -11 6 -25 6 -34 43 -220 59 -300 18
-83 43 -208 49 -240 2 -14 16 -81 30 -150 14 -69 28 -136 30 -150 5 -27 12
-57 22 -105 4 -16 8 -39 10 -50 1 -11 8 -42 14 -70 6 -27 13 -59 14 -70 2 -11
6 -29 9 -40 4 -11 9 -36 12 -55 2 -19 7 -48 11 -65 4 -16 7 -41 8 -55 1 -14 9
-29 18 -35 11 -6 288 -10 782 -9 491 0 763 -3 759 -9 -4 -6 -1 -7 8 -1 8 5
220 10 474 11 253 0 468 2 477 2 10 1 19 13 23 34 4 17 10 37 13 42 4 6 8 19
10 30 6 36 8 40 14 51 4 6 10 24 13 40 7 36 6 32 34 124 36 119 43 143 56 180
7 19 13 40 14 45 1 6 6 26 11 45 5 19 10 37 10 40 0 3 7 28 16 55 19 60 53
174 59 195 3 8 9 31 14 50 5 19 24 82 41 140 17 58 33 112 35 120 2 8 4 15 5
15 1 0 3 7 5 15 2 8 20 71 40 140 21 69 38 130 40 135 1 6 5 17 8 25 3 8 15
49 27 90 12 41 27 91 33 110 11 36 12 41 20 75 3 11 31 106 62 210 32 105 58
195 60 200 1 6 4 17 8 25 3 8 10 38 17 65 6 28 16 59 20 70 16 39 23 60 25 80
1 11 17 67 35 125 18 58 33 110 35 115 1 6 8 30 15 55 8 25 14 48 16 53 1 4 2
8 4 10 1 1 3 9 5 17 2 8 13 47 25 85 12 39 23 77 25 86 2 9 17 63 34 120 18
57 39 129 47 159 9 30 17 60 19 65 1 6 3 12 3 15 1 3 9 28 17 55 26 81 75 246
110 370 1 6 6 25 10 43 4 17 12 32 17 32 5 0 7 4 3 9 -3 5 1 29 9 53 8 24 31
99 51 168 19 69 38 132 42 140 3 8 7 20 8 25 2 6 8 28 14 50 6 22 10 42 10 45
0 3 5 19 11 35 7 17 14 38 16 48 2 9 6 25 8 35 2 9 9 31 16 47 6 17 10 30 9
30 -1 0 10 39 25 87 15 48 29 95 31 105 3 10 14 50 25 88 12 39 23 75 24 80 1
6 8 30 16 55 38 130 67 231 69 242 1 4 8 26 16 48 8 22 12 40 8 40 -3 0 -1 6
5 13 5 6 13 28 18 47 11 49 11 50 13 53 2 1 4 13 7 26 2 14 9 30 15 38 6 7 9
13 6 13 -2 0 6 37 20 83 14 45 28 96 33 112 4 17 17 58 28 93 11 34 18 62 16
62 -2 0 5 21 15 48 10 26 19 50 20 55 0 4 1 8 2 10 0 1 2 9 4 17 1 8 22 78 45
155 23 77 43 147 45 155 2 8 18 62 35 120 17 58 33 112 35 120 7 28 47 165 53
180 9 27 14 45 15 63 1 9 5 17 9 17 4 0 7 3 7 8 -1 4 0 9 1 12 1 3 3 12 5 20
12 47 24 90 101 350 14 47 27 92 29 100 2 8 4 17 6 20 1 3 3 10 4 15 1 6 4 17
7 25 11 29 40 129 38 132 -1 2 4 17 10 33 7 17 13 37 15 45 2 8 27 92 55 185
28 94 53 181 56 194 3 14 7 28 10 33 3 4 7 16 9 25 2 10 17 67 35 126 17 60
28 112 25 115 -4 4 -607 7 -1342 7 -1177 0 -1336 -2 -1343 -15 -4 -8 -11 -33
-15 -55 -5 -22 -9 -44 -11 -50 -1 -5 -7 -32 -13 -60 -6 -27 -13 -61 -16 -75
-4 -14 -8 -34 -10 -45 -5 -24 -13 -61 -21 -95 -3 -14 -7 -34 -9 -45 -2 -11
-15 -69 -29 -130 -14 -60 -28 -123 -31 -140 -3 -16 -8 -41 -11 -55 -3 -14 -9
-41 -14 -60 -5 -19 -12 -47 -15 -62 -3 -16 -7 -40 -11 -55 -3 -16 -11 -56 -19
-89 -13 -58 -20 -91 -30 -139 -2 -11 -6 -27 -8 -35 -4 -16 -16 -72 -22 -105
-2 -11 -4 -20 -5 -20 -1 0 -3 -11 -6 -25 -2 -14 -13 -63 -24 -110 -10 -47 -21
-96 -23 -110 -3 -14 -10 -43 -15 -65 -6 -22 -13 -56 -16 -76 -3 -20 -10 -48
-15 -63 -6 -14 -8 -26 -5 -26 4 0 1 -6 -5 -13 -6 -8 -8 -16 -5 -19 4 -5 -19
-119 -33 -158 -3 -8 -7 -26 -9 -40 -1 -14 -5 -36 -9 -50 -3 -14 -8 -36 -11
-50 -3 -14 -9 -41 -14 -60 -9 -35 -16 -66 -27 -125 -8 -46 -11 -60 -13 -62 -4
-4 -6 -15 -15 -68 -10 -57 -12 -64 -14 -67 -2 -2 -4 -12 -6 -23 -2 -11 -16
-74 -30 -140 -15 -66 -29 -131 -31 -145 -3 -14 -10 -43 -16 -65 -5 -22 -12
-49 -13 -60 -2 -11 -6 -31 -9 -45 -4 -14 -8 -36 -11 -50 -3 -14 -7 -36 -11
-50 -3 -14 -8 -36 -10 -50 -3 -14 -7 -34 -9 -45 -2 -11 -8 -35 -14 -53 -5 -18
-10 -35 -10 -37 -1 -3 -1 -6 -2 -7 0 -2 -2 -12 -3 -23 -1 -11 -8 -42 -14 -70
-18 -81 -61 -278 -66 -305 -2 -14 -5 -25 -6 -25 -1 0 -3 -9 -5 -20 -6 -32 -18
-89 -21 -100 -2 -5 -6 -23 -9 -40 -3 -16 -8 -37 -10 -45 -3 -8 -7 -33 -11 -55
-3 -22 -9 -44 -12 -50 -3 -5 -7 -18 -8 -30 -3 -26 -9 -58 -24 -120 -6 -27 -13
-57 -15 -65 -2 -8 -9 -37 -15 -65 -6 -27 -14 -61 -16 -75 -3 -14 -7 -32 -9
-40 -2 -8 -7 -31 -10 -50 -3 -19 -10 -53 -16 -75 -5 -22 -12 -51 -15 -65 -3
-14 -11 -53 -19 -88 -8 -34 -17 -74 -20 -90 -9 -48 -15 -76 -29 -137 -8 -33
-12 -63 -10 -67 2 -3 0 -9 -6 -13 -8 -5 -17 15 -23 56 -2 8 -6 20 -10 27 -5 6
-6 12 -3 12 2 0 -2 26 -9 58 -8 33 -16 70 -19 83 -2 13 -20 96 -40 184 -20 88
-38 169 -40 180 -2 11 -11 50 -20 86 -18 78 -25 109 -36 164 -4 22 -11 51 -15
65 -3 14 -8 34 -10 45 -1 11 -11 54 -20 95 -9 41 -18 84 -20 95 -2 11 -13 61
-25 110 -12 50 -24 99 -26 110 -4 28 -12 64 -18 83 -3 9 -8 31 -10 47 -9 52
-18 90 -24 99 -3 5 -6 23 -8 40 -2 17 -6 40 -8 51 -20 77 -23 95 -20 95 3 0 0
8 -5 18 -5 9 -12 35 -15 57 -4 22 -13 64 -20 95 -19 75 -46 201 -49 225 -1 11
-6 26 -11 33 -4 7 -5 16 -2 19 3 3 1 13 -3 22 -5 9 -12 34 -15 56 -4 22 -8 47
-11 55 -2 8 -6 27 -9 43 -3 15 -7 35 -10 45 -3 9 -8 28 -10 42 -3 14 -10 43
-15 65 -12 53 -42 195 -47 218 -2 10 -6 27 -9 37 -9 28 -16 61 -21 105 -3 22
-9 44 -13 50 -4 5 -8 26 -10 45 -2 19 -7 37 -12 38 -5 2 -7 7 -5 11 3 4 -4 47
-15 97 -12 49 -22 98 -25 109 -2 11 -15 72 -30 135 -27 121 -34 152 -37 185
-1 11 -5 22 -8 25 -4 3 -8 21 -10 40 -2 19 -5 40 -8 45 -3 6 -6 15 -7 22 -1 6
-12 53 -23 105 -20 89 -25 112 -36 168 -3 14 -9 40 -15 59 -5 19 -7 38 -4 42
3 5 0 9 -6 9 -6 0 -9 4 -6 9 3 5 1 22 -4 37 -5 16 -11 40 -12 54 -2 14 -7 31
-11 38 -5 6 -6 12 -4 12 3 0 1 17 -4 38 -5 20 -12 48 -15 62 -8 45 -15 76 -39
175 -9 39 -18 79 -20 90 -5 35 -33 159 -40 177 -4 9 -8 29 -9 45 -2 15 -6 35
-9 43 -4 8 -8 29 -11 45 -2 17 -5 31 -6 33 -2 1 -3 6 -4 11 0 5 -5 13 -9 18
-5 4 -412 8 -906 8 l-897 0 -24 -100z"/>
<path d="M4306 14563 c-3 -4 -19 -8 -34 -9 -86 -8 -110 -12 -121 -18 -6 -4
-14 -5 -19 -2 -4 2 -30 0 -57 -5 -28 -6 -62 -12 -77 -14 -15 -2 -55 -9 -90
-15 -35 -7 -74 -14 -88 -17 -14 -2 -45 -9 -70 -14 -25 -6 -56 -13 -70 -15 -13
-3 -63 -14 -110 -25 -47 -12 -92 -22 -100 -24 -8 -2 -16 -4 -17 -5 -2 -2 -6
-3 -10 -4 -20 -5 -89 -20 -93 -20 -3 -1 -18 -6 -35 -12 -33 -13 -119 -37 -123
-35 -1 1 -18 -5 -37 -13 -19 -8 -35 -12 -35 -9 0 3 -6 1 -12 -4 -11 -8 -49
-22 -78 -27 -3 -1 -11 -5 -17 -9 -7 -5 -13 -5 -13 -1 0 3 -6 2 -12 -3 -7 -6
-44 -21 -83 -33 -38 -12 -74 -26 -80 -30 -5 -4 -28 -13 -50 -20 -22 -7 -65
-24 -95 -38 -30 -14 -61 -25 -67 -25 -7 0 -13 -4 -13 -9 0 -4 -5 -8 -12 -8
-25 0 -365 -169 -524 -261 -115 -65 -380 -235 -402 -256 -8 -7 -35 -27 -60
-45 -26 -18 -52 -37 -58 -43 -6 -5 -26 -21 -44 -35 -19 -14 -42 -33 -52 -42
-10 -10 -18 -16 -18 -13 0 3 -19 -11 -42 -32 -23 -21 -54 -49 -70 -63 -149
-130 -358 -341 -358 -360 0 -6 -7 -10 -15 -10 -8 0 -15 -4 -15 -8 0 -7 -20
-33 -112 -144 -28 -34 -31 -38 -91 -115 -26 -34 -47 -66 -47 -71 0 -5 -7 -13
-16 -16 -8 -3 -13 -10 -10 -15 4 -5 2 -11 -2 -13 -12 -4 -72 -95 -72 -107 0
-6 -4 -11 -10 -11 -5 0 -17 -17 -27 -37 -9 -21 -20 -40 -23 -43 -4 -3 -25 -40
-49 -82 -23 -43 -46 -80 -52 -83 -5 -4 -7 -10 -4 -15 3 -4 -2 -13 -10 -20 -8
-7 -13 -16 -10 -20 3 -4 -2 -13 -10 -20 -8 -7 -15 -17 -15 -23 0 -5 -15 -42
-34 -81 -50 -105 -97 -219 -99 -238 -1 -10 -5 -18 -9 -18 -4 0 -8 -8 -8 -18 0
-10 -3 -22 -8 -26 -4 -4 -7 -11 -7 -14 -1 -4 -13 -43 -27 -87 -21 -65 -40
-127 -53 -175 -1 -3 -7 -23 -13 -44 -6 -22 -9 -42 -7 -45 3 -2 1 -9 -4 -15 -5
-6 -11 -27 -14 -47 -2 -20 -7 -41 -10 -45 -3 -5 -8 -29 -11 -54 -3 -25 -9 -58
-12 -75 -9 -45 -12 -64 -18 -125 -4 -30 -8 -64 -11 -75 -26 -126 -26 -719 0
-890 12 -76 18 -133 19 -167 1 -21 4 -38 8 -38 4 0 7 -8 7 -17 0 -17 6 -59 18
-113 16 -79 24 -118 28 -143 3 -16 7 -33 10 -38 4 -5 8 -17 10 -27 9 -49 30
-121 51 -177 4 -11 8 -26 10 -33 1 -8 6 -21 10 -30 4 -9 9 -23 11 -29 1 -7 5
-19 6 -25 2 -7 9 -26 15 -41 7 -16 12 -31 12 -35 1 -4 9 -25 20 -47 11 -22 19
-45 20 -51 0 -5 12 -35 26 -65 82 -172 122 -250 152 -304 19 -33 43 -76 54
-95 68 -119 302 -443 312 -433 3 4 6 1 6 -5 0 -12 13 -29 109 -136 69 -77 274
-286 282 -286 3 0 28 -21 55 -47 28 -27 65 -59 83 -73 18 -14 42 -34 55 -45
12 -11 35 -29 50 -40 74 -54 173 -128 189 -141 9 -8 19 -14 22 -14 3 0 38 -22
79 -50 41 -27 79 -50 85 -50 6 0 11 -4 11 -8 0 -5 12 -15 28 -23 15 -7 50 -27
77 -43 91 -53 109 -62 220 -118 140 -70 255 -123 345 -160 14 -6 33 -15 44
-20 10 -5 27 -11 37 -13 10 -2 33 -10 51 -19 38 -17 206 -76 288 -101 30 -9
64 -20 75 -25 11 -5 31 -11 45 -13 27 -5 135 -35 160 -45 8 -3 26 -7 39 -9 14
-2 50 -11 80 -19 67 -18 65 -18 162 -38 42 -9 83 -18 90 -20 8 -3 28 -7 44
-10 42 -6 154 -25 190 -32 17 -3 46 -7 65 -9 19 -2 35 -4 35 -5 0 -1 15 -3 34
-6 55 -7 80 -12 91 -19 5 -3 10 -1 10 5 0 6 5 8 12 4 6 -4 21 -8 32 -10 12 -1
41 -5 66 -8 25 -3 77 -8 115 -11 39 -3 81 -8 95 -11 14 -2 59 -7 100 -9 41 -3
100 -7 130 -9 193 -15 481 -19 1408 -20 573 0 1049 1 1056 4 10 4 12 304 12
1553 l0 1548 -100 -103 c-109 -111 -234 -225 -269 -245 -12 -7 -17 -12 -12
-13 6 0 -5 -9 -24 -21 -19 -11 -40 -26 -47 -32 -24 -22 -38 -32 -141 -100 -56
-37 -106 -67 -111 -67 -5 0 -19 -9 -32 -20 -13 -11 -28 -20 -34 -20 -6 0 -23
-8 -36 -17 -14 -10 -31 -18 -39 -20 -8 -1 -17 -7 -21 -13 -4 -7 -10 -12 -13
-11 -4 0 -24 -7 -44 -16 -21 -9 -40 -17 -43 -18 -3 -1 -23 -9 -45 -19 -48 -21
-202 -76 -225 -81 -10 -2 -48 -12 -86 -23 -78 -23 -118 -32 -154 -38 -14 -2
-36 -6 -50 -8 -51 -11 -143 -22 -270 -33 -141 -12 -451 -5 -530 12 -14 3 -40
6 -57 7 -18 1 -33 5 -33 9 0 5 -6 6 -13 3 -8 -3 -54 5 -103 16 -49 11 -98 22
-109 24 -11 2 -37 10 -58 19 -21 9 -35 12 -32 7 3 -5 -8 -2 -25 7 -17 8 -37
16 -45 17 -8 1 -18 5 -21 9 -4 4 -14 7 -22 7 -48 0 -429 212 -503 280 -9 8
-50 44 -90 80 -41 35 -96 90 -124 122 -27 32 -63 72 -79 90 -60 69 -223 344
-225 381 0 4 -7 20 -14 35 -40 79 -123 374 -110 395 2 4 0 7 -4 7 -5 0 -9 15
-10 33 -1 17 -4 45 -8 61 -3 15 -7 50 -8 77 -1 27 -4 49 -7 49 -6 0 -3 417 3
475 7 60 15 108 33 193 9 42 17 84 19 92 2 8 10 35 19 60 9 25 19 55 22 67 2
12 13 43 24 68 11 26 20 53 20 61 0 8 4 14 9 14 5 0 12 12 16 27 3 15 11 31
16 34 6 3 11 12 13 20 5 37 150 254 225 339 125 141 310 299 430 366 118 67
168 94 181 100 8 4 33 15 56 25 22 11 46 19 52 19 7 0 12 5 12 11 0 5 4 8 8 5
4 -2 21 1 37 9 41 18 67 27 86 31 9 2 29 8 45 14 16 6 29 11 29 10 0 -1 12 3
28 9 15 6 38 13 50 15 12 2 54 12 92 21 39 9 84 19 100 21 17 2 41 6 55 9 30
6 116 17 147 19 12 1 25 5 29 9 4 3 15 2 25 -4 11 -5 19 -6 19 -1 0 5 102 9
235 9 129 0 235 -4 235 -7 0 -4 12 -6 28 -6 32 0 139 -13 165 -20 17 -5 17 -3
-3 35 -11 23 -25 41 -30 41 -6 0 -10 7 -10 15 0 9 -5 21 -10 28 -12 13 -14 17
-204 320 -75 120 -136 222 -136 227 0 6 -3 10 -8 10 -4 0 -16 17 -27 38 -11
20 -23 42 -28 47 -4 6 -20 30 -35 55 -16 25 -48 76 -73 114 -24 39 -48 78 -54
88 -5 9 -35 57 -65 105 -30 48 -58 95 -62 105 -4 10 -12 18 -18 18 -5 0 -10 9
-10 19 0 11 -4 21 -8 23 -4 2 -57 82 -117 178 -131 208 -131 209 -144 238 -6
12 -14 22 -19 22 -4 0 -13 12 -20 28 -15 32 -24 48 -79 133 -24 36 -43 70 -43
76 0 6 -7 13 -15 17 -8 3 -15 10 -15 16 0 9 -69 120 -75 120 -1 0 -5 -3 -9 -7z"/>
</g>
</svg>
